<mxfile host="app.diagrams.net" agent="Mozilla/5.0 (Windows NT 10.0; Win64; x64) AppleWebKit/537.36 (KHTML, like Gecko) Chrome/136.0.0.0 Safari/537.36 Edg/136.0.0.0" version="27.0.6">
  <diagram name="Page-1" id="HL3dHh_F0G5JGeH-E2e_">
    <mxGraphModel dx="1630" dy="902" grid="1" gridSize="10" guides="1" tooltips="1" connect="1" arrows="1" fold="1" page="1" pageScale="1" pageWidth="850" pageHeight="1100" math="0" shadow="0">
      <root>
        <mxCell id="0" />
        <mxCell id="1" parent="0" />
        <mxCell id="0Z2pFI0KFVMynxoH3df5-33" value="Sơ đồ tuần tự chức năng gửi tin nhắn với chatbot" style="swimlane;whiteSpace=wrap;html=1;startSize=23;fontSize=14;" parent="1" vertex="1">
          <mxGeometry x="140" y="480" width="1180" height="450" as="geometry" />
        </mxCell>
        <mxCell id="0Z2pFI0KFVMynxoH3df5-34" value="" style="shape=umlLifeline;perimeter=lifelinePerimeter;whiteSpace=wrap;html=1;container=1;dropTarget=0;collapsible=0;recursiveResize=0;outlineConnect=0;portConstraint=eastwest;newEdgeStyle={&quot;curved&quot;:0,&quot;rounded&quot;:0};participant=umlActor;" parent="0Z2pFI0KFVMynxoH3df5-33" vertex="1">
          <mxGeometry x="40" y="50" width="30" height="400" as="geometry" />
        </mxCell>
        <mxCell id="0Z2pFI0KFVMynxoH3df5-35" value="Giao diện" style="shape=umlLifeline;perimeter=lifelinePerimeter;whiteSpace=wrap;html=1;container=1;dropTarget=0;collapsible=0;recursiveResize=0;outlineConnect=0;portConstraint=eastwest;newEdgeStyle={&quot;curved&quot;:0,&quot;rounded&quot;:0};" parent="0Z2pFI0KFVMynxoH3df5-33" vertex="1">
          <mxGeometry x="150" y="50" width="90" height="400" as="geometry" />
        </mxCell>
        <mxCell id="0Z2pFI0KFVMynxoH3df5-36" value="" style="html=1;points=[[0,0,0,0,5],[0,1,0,0,-5],[1,0,0,0,5],[1,1,0,0,-5]];perimeter=orthogonalPerimeter;outlineConnect=0;targetShapes=umlLifeline;portConstraint=eastwest;newEdgeStyle={&quot;curved&quot;:0,&quot;rounded&quot;:0};" parent="0Z2pFI0KFVMynxoH3df5-35" vertex="1">
          <mxGeometry x="40" y="122" width="10" height="268" as="geometry" />
        </mxCell>
        <mxCell id="0Z2pFI0KFVMynxoH3df5-37" value="Web Client" style="shape=umlLifeline;perimeter=lifelinePerimeter;whiteSpace=wrap;html=1;container=1;dropTarget=0;collapsible=0;recursiveResize=0;outlineConnect=0;portConstraint=eastwest;newEdgeStyle={&quot;curved&quot;:0,&quot;rounded&quot;:0};" parent="0Z2pFI0KFVMynxoH3df5-33" vertex="1">
          <mxGeometry x="300" y="50" width="90" height="400" as="geometry" />
        </mxCell>
        <mxCell id="0Z2pFI0KFVMynxoH3df5-38" value="&lt;span style=&quot;color: rgba(0, 0, 0, 0); font-family: monospace; font-size: 0px; text-align: start;&quot;&gt;%3CmxGraphModel%3E%3Croot%3E%3CmxCell%20id%3D%220%22%2F%3E%3CmxCell%20id%3D%221%22%20parent%3D%220%22%2F%3E%3CmxCell%20id%3D%222%22%20value%3D%22G%E1%BB%8Di%20API%20t%C3%ACm%20ki%E1%BA%BFm%20d%E1%BB%AF%20li%E1%BB%87u%22%20style%3D%22html%3D1%3BverticalAlign%3Dbottom%3BendArrow%3Dblock%3Bcurved%3D0%3Brounded%3D0%3B%22%20edge%3D%221%22%20parent%3D%221%22%3E%3CmxGeometry%20width%3D%2280%22%20relative%3D%221%22%20as%3D%22geometry%22%3E%3CmxPoint%20x%3D%22360%22%20y%3D%22730%22%20as%3D%22sourcePoint%22%2F%3E%3CmxPoint%20x%3D%22580%22%20y%3D%22730%22%20as%3D%22targetPoint%22%2F%3E%3C%2FmxGeometry%3E%3C%2FmxCell%3E%3C%2Froot%3E%3C%2FmxGraphModel%3E&lt;/span&gt;" style="html=1;points=[[0,0,0,0,5],[0,1,0,0,-5],[1,0,0,0,5],[1,1,0,0,-5]];perimeter=orthogonalPerimeter;outlineConnect=0;targetShapes=umlLifeline;portConstraint=eastwest;newEdgeStyle={&quot;curved&quot;:0,&quot;rounded&quot;:0};" parent="0Z2pFI0KFVMynxoH3df5-37" vertex="1">
          <mxGeometry x="40" y="132" width="10" height="250" as="geometry" />
        </mxCell>
        <mxCell id="M5KoJeF3MgVTl00qdpee-1" value="" style="html=1;points=[[0,0,0,0,5],[0,1,0,0,-5],[1,0,0,0,5],[1,1,0,0,-5]];perimeter=orthogonalPerimeter;outlineConnect=0;targetShapes=umlLifeline;portConstraint=eastwest;newEdgeStyle={&quot;curved&quot;:0,&quot;rounded&quot;:0};" parent="0Z2pFI0KFVMynxoH3df5-37" vertex="1">
          <mxGeometry x="40" y="60" width="10" height="55" as="geometry" />
        </mxCell>
        <mxCell id="M5KoJeF3MgVTl00qdpee-3" value="Yêu cấu kết nối socket" style="html=1;verticalAlign=bottom;endArrow=block;curved=0;rounded=0;" parent="0Z2pFI0KFVMynxoH3df5-37" target="M5KoJeF3MgVTl00qdpee-2" edge="1">
          <mxGeometry width="80" relative="1" as="geometry">
            <mxPoint x="50" y="70" as="sourcePoint" />
            <mxPoint x="230" y="70" as="targetPoint" />
          </mxGeometry>
        </mxCell>
        <mxCell id="M5KoJeF3MgVTl00qdpee-4" value="Xác nhận kết nối" style="html=1;verticalAlign=bottom;endArrow=open;dashed=1;endSize=8;curved=0;rounded=0;" parent="0Z2pFI0KFVMynxoH3df5-37" edge="1">
          <mxGeometry relative="1" as="geometry">
            <mxPoint x="200" y="100" as="sourcePoint" />
            <mxPoint x="50" y="100" as="targetPoint" />
            <mxPoint as="offset" />
          </mxGeometry>
        </mxCell>
        <mxCell id="0Z2pFI0KFVMynxoH3df5-39" value="Web Socket&amp;nbsp;" style="shape=umlLifeline;perimeter=lifelinePerimeter;whiteSpace=wrap;html=1;container=1;dropTarget=0;collapsible=0;recursiveResize=0;outlineConnect=0;portConstraint=eastwest;newEdgeStyle={&quot;curved&quot;:0,&quot;rounded&quot;:0};" parent="0Z2pFI0KFVMynxoH3df5-33" vertex="1">
          <mxGeometry x="460" y="50" width="90" height="400" as="geometry" />
        </mxCell>
        <mxCell id="0Z2pFI0KFVMynxoH3df5-40" value="" style="html=1;points=[[0,0,0,0,5],[0,1,0,0,-5],[1,0,0,0,5],[1,1,0,0,-5]];perimeter=orthogonalPerimeter;outlineConnect=0;targetShapes=umlLifeline;portConstraint=eastwest;newEdgeStyle={&quot;curved&quot;:0,&quot;rounded&quot;:0};" parent="0Z2pFI0KFVMynxoH3df5-39" vertex="1">
          <mxGeometry x="40" y="142" width="10" height="230" as="geometry" />
        </mxCell>
        <mxCell id="M5KoJeF3MgVTl00qdpee-2" value="" style="html=1;points=[[0,0,0,0,5],[0,1,0,0,-5],[1,0,0,0,5],[1,1,0,0,-5]];perimeter=orthogonalPerimeter;outlineConnect=0;targetShapes=umlLifeline;portConstraint=eastwest;newEdgeStyle={&quot;curved&quot;:0,&quot;rounded&quot;:0};" parent="0Z2pFI0KFVMynxoH3df5-39" vertex="1">
          <mxGeometry x="40" y="62.5" width="10" height="50" as="geometry" />
        </mxCell>
        <mxCell id="0Z2pFI0KFVMynxoH3df5-41" value="Nhập nội dung &lt;br&gt;tin nhắn" style="html=1;verticalAlign=bottom;endArrow=block;curved=0;rounded=0;" parent="0Z2pFI0KFVMynxoH3df5-33" target="0Z2pFI0KFVMynxoH3df5-36" edge="1">
          <mxGeometry width="80" relative="1" as="geometry">
            <mxPoint x="60" y="182" as="sourcePoint" />
            <mxPoint x="230" y="182" as="targetPoint" />
            <mxPoint as="offset" />
          </mxGeometry>
        </mxCell>
        <mxCell id="0Z2pFI0KFVMynxoH3df5-44" value="Chatbot Service" style="shape=umlLifeline;perimeter=lifelinePerimeter;whiteSpace=wrap;html=1;container=1;dropTarget=0;collapsible=0;recursiveResize=0;outlineConnect=0;portConstraint=eastwest;newEdgeStyle={&quot;curved&quot;:0,&quot;rounded&quot;:0};" parent="0Z2pFI0KFVMynxoH3df5-33" vertex="1">
          <mxGeometry x="620" y="50" width="90" height="400" as="geometry" />
        </mxCell>
        <mxCell id="0Z2pFI0KFVMynxoH3df5-45" value="" style="html=1;points=[[0,0,0,0,5],[0,1,0,0,-5],[1,0,0,0,5],[1,1,0,0,-5]];perimeter=orthogonalPerimeter;outlineConnect=0;targetShapes=umlLifeline;portConstraint=eastwest;newEdgeStyle={&quot;curved&quot;:0,&quot;rounded&quot;:0};" parent="0Z2pFI0KFVMynxoH3df5-44" vertex="1">
          <mxGeometry x="40" y="152" width="10" height="200" as="geometry" />
        </mxCell>
        <mxCell id="0Z2pFI0KFVMynxoH3df5-52" value="Embeeding Service" style="shape=umlLifeline;perimeter=lifelinePerimeter;whiteSpace=wrap;html=1;container=1;dropTarget=0;collapsible=0;recursiveResize=0;outlineConnect=0;portConstraint=eastwest;newEdgeStyle={&quot;curved&quot;:0,&quot;rounded&quot;:0};" parent="0Z2pFI0KFVMynxoH3df5-33" vertex="1">
          <mxGeometry x="770" y="50" width="90" height="400" as="geometry" />
        </mxCell>
        <mxCell id="0Z2pFI0KFVMynxoH3df5-53" value="" style="html=1;points=[[0,0,0,0,5],[0,1,0,0,-5],[1,0,0,0,5],[1,1,0,0,-5]];perimeter=orthogonalPerimeter;outlineConnect=0;targetShapes=umlLifeline;portConstraint=eastwest;newEdgeStyle={&quot;curved&quot;:0,&quot;rounded&quot;:0};" parent="0Z2pFI0KFVMynxoH3df5-52" vertex="1">
          <mxGeometry x="40" y="162" width="10" height="50" as="geometry" />
        </mxCell>
        <mxCell id="0Z2pFI0KFVMynxoH3df5-54" value="Qdrant" style="shape=umlLifeline;perimeter=lifelinePerimeter;whiteSpace=wrap;html=1;container=1;dropTarget=0;collapsible=0;recursiveResize=0;outlineConnect=0;portConstraint=eastwest;newEdgeStyle={&quot;curved&quot;:0,&quot;rounded&quot;:0};" parent="0Z2pFI0KFVMynxoH3df5-33" vertex="1">
          <mxGeometry x="910" y="50" width="90" height="400" as="geometry" />
        </mxCell>
        <mxCell id="0Z2pFI0KFVMynxoH3df5-55" value="" style="html=1;points=[[0,0,0,0,5],[0,1,0,0,-5],[1,0,0,0,5],[1,1,0,0,-5]];perimeter=orthogonalPerimeter;outlineConnect=0;targetShapes=umlLifeline;portConstraint=eastwest;newEdgeStyle={&quot;curved&quot;:0,&quot;rounded&quot;:0};" parent="0Z2pFI0KFVMynxoH3df5-54" vertex="1">
          <mxGeometry x="40" y="212" width="10" height="60" as="geometry" />
        </mxCell>
        <mxCell id="0Z2pFI0KFVMynxoH3df5-56" value="LLM" style="shape=umlLifeline;perimeter=lifelinePerimeter;whiteSpace=wrap;html=1;container=1;dropTarget=0;collapsible=0;recursiveResize=0;outlineConnect=0;portConstraint=eastwest;newEdgeStyle={&quot;curved&quot;:0,&quot;rounded&quot;:0};" parent="0Z2pFI0KFVMynxoH3df5-33" vertex="1">
          <mxGeometry x="1045" y="50" width="90" height="400" as="geometry" />
        </mxCell>
        <mxCell id="0Z2pFI0KFVMynxoH3df5-59" value="Gửi tin nhắn" style="html=1;verticalAlign=bottom;endArrow=block;curved=0;rounded=0;" parent="0Z2pFI0KFVMynxoH3df5-33" target="0Z2pFI0KFVMynxoH3df5-38" edge="1">
          <mxGeometry width="80" relative="1" as="geometry">
            <mxPoint x="200" y="192" as="sourcePoint" />
            <mxPoint x="410" y="192" as="targetPoint" />
          </mxGeometry>
        </mxCell>
        <mxCell id="0Z2pFI0KFVMynxoH3df5-60" value="Gửi tin nhắn&amp;nbsp;&lt;br&gt;(qua Websocket)" style="html=1;verticalAlign=bottom;endArrow=block;curved=0;rounded=0;" parent="0Z2pFI0KFVMynxoH3df5-33" source="0Z2pFI0KFVMynxoH3df5-38" edge="1">
          <mxGeometry width="80" relative="1" as="geometry">
            <mxPoint x="420" y="202" as="sourcePoint" />
            <mxPoint x="500" y="202" as="targetPoint" />
          </mxGeometry>
        </mxCell>
        <mxCell id="0Z2pFI0KFVMynxoH3df5-61" value="Chuyển tiếp tin nhắn" style="html=1;verticalAlign=bottom;endArrow=block;curved=0;rounded=0;" parent="0Z2pFI0KFVMynxoH3df5-33" source="0Z2pFI0KFVMynxoH3df5-40" edge="1">
          <mxGeometry width="80" relative="1" as="geometry">
            <mxPoint x="600" y="212" as="sourcePoint" />
            <mxPoint x="660" y="212" as="targetPoint" />
            <mxPoint as="offset" />
          </mxGeometry>
        </mxCell>
        <mxCell id="0Z2pFI0KFVMynxoH3df5-62" value="Gửi truy vấn khô" style="html=1;verticalAlign=bottom;endArrow=block;curved=0;rounded=0;" parent="0Z2pFI0KFVMynxoH3df5-33" edge="1">
          <mxGeometry width="80" relative="1" as="geometry">
            <mxPoint x="670" y="222" as="sourcePoint" />
            <mxPoint x="810" y="222" as="targetPoint" />
          </mxGeometry>
        </mxCell>
        <mxCell id="0Z2pFI0KFVMynxoH3df5-63" value="Xử lý và trả về vector" style="html=1;verticalAlign=bottom;endArrow=open;dashed=1;endSize=8;curved=0;rounded=0;" parent="0Z2pFI0KFVMynxoH3df5-33" edge="1">
          <mxGeometry relative="1" as="geometry">
            <mxPoint x="810" y="252" as="sourcePoint" />
            <mxPoint x="670" y="252" as="targetPoint" />
            <mxPoint as="offset" />
          </mxGeometry>
        </mxCell>
        <mxCell id="0Z2pFI0KFVMynxoH3df5-64" value="Truy vấn với vector" style="html=1;verticalAlign=bottom;endArrow=block;curved=0;rounded=0;" parent="0Z2pFI0KFVMynxoH3df5-33" edge="1">
          <mxGeometry width="80" relative="1" as="geometry">
            <mxPoint x="670.0000000000002" y="282" as="sourcePoint" />
            <mxPoint x="950" y="282.41999999999996" as="targetPoint" />
          </mxGeometry>
        </mxCell>
        <mxCell id="0Z2pFI0KFVMynxoH3df5-66" value="Trả về dữ liệu liên quan" style="html=1;verticalAlign=bottom;endArrow=open;dashed=1;endSize=8;curved=0;rounded=0;" parent="0Z2pFI0KFVMynxoH3df5-33" target="0Z2pFI0KFVMynxoH3df5-45" edge="1">
          <mxGeometry relative="1" as="geometry">
            <mxPoint x="950" y="312" as="sourcePoint" />
            <mxPoint x="960" y="311" as="targetPoint" />
            <mxPoint as="offset" />
          </mxGeometry>
        </mxCell>
        <mxCell id="0Z2pFI0KFVMynxoH3df5-57" value="" style="html=1;points=[[0,0,0,0,5],[0,1,0,0,-5],[1,0,0,0,5],[1,1,0,0,-5]];perimeter=orthogonalPerimeter;outlineConnect=0;targetShapes=umlLifeline;portConstraint=eastwest;newEdgeStyle={&quot;curved&quot;:0,&quot;rounded&quot;:0};" parent="0Z2pFI0KFVMynxoH3df5-33" vertex="1">
          <mxGeometry x="1085" y="332" width="10" height="50" as="geometry" />
        </mxCell>
        <mxCell id="0Z2pFI0KFVMynxoH3df5-68" value="Gửi dữ liệu và promt&amp;nbsp;" style="html=1;verticalAlign=bottom;endArrow=block;curved=0;rounded=0;" parent="0Z2pFI0KFVMynxoH3df5-33" edge="1">
          <mxGeometry width="80" relative="1" as="geometry">
            <mxPoint x="670" y="342" as="sourcePoint" />
            <mxPoint x="1085" y="342" as="targetPoint" />
          </mxGeometry>
        </mxCell>
        <mxCell id="0Z2pFI0KFVMynxoH3df5-69" value="Phản hồi câu trả lời" style="html=1;verticalAlign=bottom;endArrow=open;dashed=1;endSize=8;curved=0;rounded=0;" parent="0Z2pFI0KFVMynxoH3df5-33" target="0Z2pFI0KFVMynxoH3df5-45" edge="1">
          <mxGeometry relative="1" as="geometry">
            <mxPoint x="1080" y="372" as="sourcePoint" />
            <mxPoint x="960" y="372" as="targetPoint" />
            <mxPoint as="offset" />
          </mxGeometry>
        </mxCell>
        <mxCell id="0Z2pFI0KFVMynxoH3df5-70" value="Gửi câu trả lời" style="html=1;verticalAlign=bottom;endArrow=open;dashed=1;endSize=8;curved=0;rounded=0;" parent="0Z2pFI0KFVMynxoH3df5-33" target="0Z2pFI0KFVMynxoH3df5-40" edge="1">
          <mxGeometry relative="1" as="geometry">
            <mxPoint x="660" y="382" as="sourcePoint" />
            <mxPoint x="600" y="382" as="targetPoint" />
          </mxGeometry>
        </mxCell>
        <mxCell id="0Z2pFI0KFVMynxoH3df5-71" value="Gửi câu trả lời&lt;br&gt;(qua websocket)" style="html=1;verticalAlign=bottom;endArrow=open;dashed=1;endSize=8;curved=0;rounded=0;" parent="0Z2pFI0KFVMynxoH3df5-33" target="0Z2pFI0KFVMynxoH3df5-38" edge="1">
          <mxGeometry relative="1" as="geometry">
            <mxPoint x="500" y="392" as="sourcePoint" />
            <mxPoint x="420" y="392" as="targetPoint" />
          </mxGeometry>
        </mxCell>
        <mxCell id="0Z2pFI0KFVMynxoH3df5-72" value="Cập nhật giao diện" style="html=1;verticalAlign=bottom;endArrow=open;dashed=1;endSize=8;curved=0;rounded=0;" parent="0Z2pFI0KFVMynxoH3df5-33" source="0Z2pFI0KFVMynxoH3df5-38" edge="1">
          <mxGeometry relative="1" as="geometry">
            <mxPoint x="410" y="412" as="sourcePoint" />
            <mxPoint x="200" y="412" as="targetPoint" />
          </mxGeometry>
        </mxCell>
        <mxCell id="0Z2pFI0KFVMynxoH3df5-74" value="Hiển thị tin nhắn &lt;br&gt;mới nhất" style="html=1;verticalAlign=bottom;endArrow=open;dashed=1;endSize=8;curved=0;rounded=0;" parent="0Z2pFI0KFVMynxoH3df5-33" source="0Z2pFI0KFVMynxoH3df5-36" edge="1">
          <mxGeometry relative="1" as="geometry">
            <mxPoint x="230" y="422" as="sourcePoint" />
            <mxPoint x="60" y="422" as="targetPoint" />
          </mxGeometry>
        </mxCell>
      </root>
    </mxGraphModel>
  </diagram>
</mxfile>
